<svg width="54" height="54" viewBox="0 0 54 54" fill="none" xmlns="http://www.w3.org/2000/svg">
<g clip-path="url(#clip0_643_981)">
<path d="M2.59237 31.9261C3.29125 32.625 4.01861 32.839 5.40212 32.8532L20.6777 32.9245C20.8203 32.9245 20.9345 32.9245 21.0058 32.9958C21.0628 33.0529 21.0771 33.1813 21.0771 33.3239L21.1341 48.5852C21.1626 49.983 21.3623 50.6961 22.0612 51.3949C23.0311 52.3648 24.3576 52.2079 25.3274 51.2382C25.8695 50.6961 26.2973 49.8403 26.6682 49.0415L42.1149 15.7662C42.9136 14.0547 42.8138 12.8138 42.0008 12.0008C41.1735 11.1736 39.9469 11.088 38.2354 11.8867L4.94578 27.3191C4.16128 27.7043 3.2913 28.1179 2.7492 28.6599C1.77941 29.6297 1.62249 30.9562 2.59237 31.9261Z" fill="#0073E6"/>
</g>
<defs>
<clipPath id="clip0_643_981">
<rect width="31.9304" height="43.2261" fill="white" transform="translate(30.7046 0.70459) rotate(45)"/>
</clipPath>
</defs>
</svg>
