<svg width="25" height="21" viewBox="0 0 25 21" fill="none" xmlns="http://www.w3.org/2000/svg">
<g id="house" clip-path="url(#clip0_665_8390)">
<g id="Group">
<path id="Vector" d="M9.29925 18.4809H15.1007V11.7445C15.1007 11.3189 14.799 11.0413 14.3365 11.0413H10.0734C9.60083 11.0413 9.29925 11.3189 9.29925 11.7445V18.4809ZM5.36794 19.4339H18.9716C20.3994 19.4339 21.2338 18.6844 21.2338 17.389V7.16424L19.6151 6.1464V17.0096C19.6151 17.611 19.2632 17.9442 18.6298 17.9442H5.70979C5.06631 17.9442 4.7144 17.611 4.7144 17.0096V6.15565L3.09563 7.16424V17.389C3.09563 18.6844 3.93015 19.4339 5.36794 19.4339ZM0.199951 9.13513C0.199951 9.51454 0.521693 9.87538 1.06463 9.87538C1.34616 9.87538 1.57741 9.73665 1.78855 9.57928L11.853 1.80668C12.0742 1.62161 12.3457 1.62161 12.567 1.80668L22.6314 9.57928C22.8325 9.73665 23.0637 9.87538 23.3453 9.87538C23.8178 9.87538 24.2 9.60708 24.2 9.16293C24.2 8.8853 24.0994 8.7003 23.8882 8.53369L13.4216 0.437211C12.6775 -0.145737 11.7525 -0.145737 10.9984 0.437211L0.521693 8.53369C0.300496 8.7003 0.199951 8.92234 0.199951 9.13513ZM18.7102 4.962L21.2338 6.92366V2.64871C21.2338 2.24158 20.9523 1.98248 20.51 1.98248H19.4341C19.0018 1.98248 18.7102 2.24158 18.7102 2.64871V4.962Z" fill="#0073E6"/>
</g>
</g>
<defs>
<clipPath id="clip0_665_8390">
<rect width="24" height="21" fill="white" transform="translate(0.199951)"/>
</clipPath>
</defs>
</svg>
