<svg width="101" height="100" viewBox="0 0 101 100" fill="none" xmlns="http://www.w3.org/2000/svg">
<g filter="url(#filter0_d_921_1237)">
<path d="M50.2315 95C46.9682 92.4404 43.6403 89.9448 40.4417 87.2952C31.5092 79.9023 23.1812 71.9035 15.8864 62.8929C10.9956 56.8518 7.0732 50.3008 5.10393 42.74C4.58633 40.7503 4.25071 38.7126 4 36.6609C5.22928 38.1387 6.3878 39.6805 7.69795 41.0843C12.4109 46.1395 18.1671 49.613 24.734 51.7906C25.4538 52.0286 25.7732 52.3945 26.0037 53.1124C29.2003 63.0309 36.1028 69.008 46.3758 70.6857C55.4499 72.1675 63.4766 69.4139 70.2356 63.1969C70.4782 62.9749 70.6946 62.7249 70.7936 62.623C68.238 60.0214 65.735 57.4717 63.1955 54.8861C58.5574 59.2075 53.1632 61.0632 46.8793 59.7254C43.5533 59.0175 40.8845 57.1918 38.802 54.5622C38.8242 54.4362 38.8485 54.3122 38.8707 54.1863C40.9775 54.1863 43.0923 54.2982 45.191 54.1643C50.369 53.8363 55.4195 52.8505 60.1041 50.5608C61.8995 49.6829 63.6585 48.6211 65.1972 47.3573C73.7293 40.3504 71.2182 29.812 64.2954 24.9027C60.4559 22.1812 56.0968 21.0793 51.4608 21.0193C43.9415 20.9214 37.3645 23.261 32.0935 28.7282C29.7906 31.1158 28.0882 33.8854 26.7862 36.9949C27.0713 37.1509 27.2836 37.2988 27.5201 37.3948C30.6075 38.6366 33.8485 39.2065 37.1522 39.4545C37.4373 39.4765 37.8699 39.1526 38.0418 38.8746C41.9621 32.4896 48.9011 30.9638 54.9889 32.4636C56.0968 32.7355 57.2048 33.3114 58.1167 34.0013C60.0172 35.4411 60.0152 37.4528 58.1996 38.9826C55.9877 40.8483 53.3148 41.7942 50.5307 42.3781C40.8056 44.4137 31.3555 43.7638 22.4574 39.0726C16.9256 36.155 12.7162 31.9557 10.7408 25.9086C7.68178 16.55 12.7182 7.16346 22.5767 4.2359C32.8254 1.19237 41.6245 3.83197 48.9496 11.4708C49.3439 11.8807 49.7179 12.3107 50.1061 12.7266C50.1486 12.7726 50.2193 12.7946 50.4195 12.9086C50.927 12.3607 51.4547 11.7807 51.9945 11.2128C55.923 7.08347 60.6419 4.31589 66.3314 3.40803C75.2376 1.98625 82.7528 4.78782 88.9093 11.1648C93.8972 16.3321 96.4205 22.6311 96.9037 29.712C97.6437 40.5363 94.0691 50.1009 87.8782 58.8215C81.843 67.3202 74.5846 74.7571 66.7681 81.632C61.7398 86.0554 56.39 90.1187 51.1817 94.3401C50.925 94.5481 50.6338 94.72 50.2315 94.996V95Z" fill="url(#paint0_radial_921_1237)"/>
</g>
<defs>
<filter id="filter0_d_921_1237" x="0" y="0" width="101" height="100" filterUnits="userSpaceOnUse" color-interpolation-filters="sRGB">
<feFlood flood-opacity="0" result="BackgroundImageFix"/>
<feColorMatrix in="SourceAlpha" type="matrix" values="0 0 0 0 0 0 0 0 0 0 0 0 0 0 0 0 0 0 127 0" result="hardAlpha"/>
<feOffset dy="1"/>
<feGaussianBlur stdDeviation="2"/>
<feComposite in2="hardAlpha" operator="out"/>
<feColorMatrix type="matrix" values="0 0 0 0 0 0 0 0 0 0 0 0 0 0 0 0 0 0 0.25 0"/>
<feBlend mode="normal" in2="BackgroundImageFix" result="effect1_dropShadow_921_1237"/>
<feBlend mode="normal" in="SourceGraphic" in2="effect1_dropShadow_921_1237" result="shape"/>
</filter>
<radialGradient id="paint0_radial_921_1237" cx="0" cy="0" r="1" gradientUnits="userSpaceOnUse" gradientTransform="translate(50.5 3) rotate(90) scale(123.165 124.504)">
<stop stop-color="#0073E6"/>
<stop offset="0.796875" stop-color="#69A5EB"/>
</radialGradient>
</defs>
</svg>
