<svg width="22" height="22" viewBox="0 0 22 22" fill="none" xmlns="http://www.w3.org/2000/svg">
<g id="person.circle">
<g id="Group">
<path id="Vector" d="M11 21.4896C16.7442 21.4896 21.5 16.7259 21.5 10.9948C21.5 5.25354 16.7339 0.5 10.9897 0.5C5.25589 0.5 0.5 5.25354 0.5 10.9948C0.5 16.7259 5.26619 21.4896 11 21.4896ZM11 19.7406C6.14119 19.7406 2.2603 15.8513 2.2603 10.9948C2.2603 6.13841 6.1309 2.24914 10.9897 2.24914C15.8486 2.24914 19.7501 6.13841 19.7501 10.9948C19.7501 15.8513 15.8589 19.7406 11 19.7406Z" fill="#282A2E" fill-opacity="0.9"/>
<path id="Vector_2" d="M6.28534 16.2112H15.6942C16.1059 16.2112 16.3015 15.9334 16.3015 15.563C16.3015 14.4313 14.603 11.5092 10.9897 11.5092C7.37651 11.5092 5.67798 14.4313 5.67798 15.563C5.67798 15.9334 5.87357 16.2112 6.28534 16.2112ZM10.9897 10.6757C12.4516 10.6861 13.6353 9.4308 13.6353 7.78454C13.6353 6.24117 12.4516 4.96533 10.9897 4.96533C9.52795 4.96533 8.34416 6.24117 8.34416 7.78454C8.34416 9.4308 9.52795 10.6654 10.9897 10.6757Z" fill="#282A2E" fill-opacity="0.9"/>
</g>
</g>
</svg>
