<svg width="21" height="22" viewBox="0 0 21 22" fill="none" xmlns="http://www.w3.org/2000/svg">
<g id="magnifyingglass" clip-path="url(#clip0_643_945)">
<g id="Group">
<path id="Vector" d="M0.199951 8.99366C0.199951 13.6769 3.86423 17.4873 8.36782 17.4873C10.1488 17.4873 11.7762 16.8913 13.1171 15.8908L18.1529 21.1381C18.3883 21.3829 18.6954 21.5 19.0229 21.5C19.719 21.5 20.2 20.9571 20.2 20.2441C20.2 19.9035 20.0771 19.5947 19.8622 19.3712L14.857 14.1345C15.9114 12.7083 16.5357 10.9308 16.5357 8.99366C16.5357 4.31044 12.8714 0.5 8.36782 0.5C3.86423 0.5 0.199951 4.31044 0.199951 8.99366ZM1.95021 8.99366C1.95021 5.31095 4.82637 2.32007 8.36782 2.32007C11.9092 2.32007 14.7854 5.31095 14.7854 8.99366C14.7854 12.6763 11.9092 15.6672 8.36782 15.6672C4.82637 15.6672 1.95021 12.6763 1.95021 8.99366Z" fill="#282A2E" fill-opacity="0.9"/>
</g>
</g>
<defs>
<clipPath id="clip0_643_945">
<rect width="20" height="21" fill="white" transform="translate(0.199951 0.5)"/>
</clipPath>
</defs>
</svg>
