<svg width="21" height="21" viewBox="0 0 21 21" fill="none" xmlns="http://www.w3.org/2000/svg">
<g id="magnifyingglass" clip-path="url(#clip0_665_8415)">
<g id="Group">
<path id="Vector" d="M0.400146 8.49366C0.400146 13.1769 4.06443 16.9873 8.56802 16.9873C10.349 16.9873 11.9764 16.3913 13.3173 15.3908L18.3531 20.6381C18.5885 20.8829 18.8956 21 19.2231 21C19.9192 21 20.4001 20.4571 20.4001 19.7441C20.4001 19.4035 20.2773 19.0947 20.0624 18.8712L15.0572 13.6345C16.1116 12.2083 16.7359 10.4308 16.7359 8.49366C16.7359 3.81044 13.0716 0 8.56802 0C4.06443 0 0.400146 3.81044 0.400146 8.49366ZM2.15041 8.49366C2.15041 4.81095 5.02657 1.82007 8.56802 1.82007C12.1094 1.82007 14.9856 4.81095 14.9856 8.49366C14.9856 12.1763 12.1094 15.1672 8.56802 15.1672C5.02657 15.1672 2.15041 12.1763 2.15041 8.49366Z" fill="#282A2E" fill-opacity="0.9"/>
</g>
</g>
<defs>
<clipPath id="clip0_665_8415">
<rect width="20" height="21" fill="white" transform="translate(0.400146)"/>
</clipPath>
</defs>
</svg>
