<svg width="57" height="21" viewBox="0 0 57 21" fill="none" xmlns="http://www.w3.org/2000/svg">
<g id="switch">
<path id="Vector" d="M47.4207 0.808594H8.69198C4.33807 0.808594 0.808521 4.33814 0.808521 8.69206V11.6783C0.808521 16.0323 4.33807 19.5618 8.69198 19.5618H47.4207C51.7746 19.5618 55.3041 16.0323 55.3041 11.6783V8.69206C55.3041 4.33814 51.7746 0.808594 47.4207 0.808594Z" fill="white"/>
<path id="Vector_2" d="M54.8864 6.54802C53.1565 4.91846 50.87 4.0104 48.4934 4.00915H12.7496C11.2027 4.00751 9.67939 4.38902 8.31583 5.11962C6.95226 5.85021 5.79086 6.90714 4.93535 8.19602C4.07984 9.48489 3.55685 10.9656 3.41309 12.5058C3.26934 14.0461 3.50929 15.598 4.11152 17.0229C2.74127 15.7381 1.78855 14.0713 1.37687 12.2386C0.965183 10.4059 1.11351 8.49177 1.80263 6.74436C2.49175 4.99695 3.68988 3.49683 5.2417 2.43846C6.79353 1.38008 8.6275 0.812261 10.5059 0.808594H46.2496C48.0933 0.813561 49.8948 1.36022 51.4304 2.38063C52.9659 3.40105 54.1677 4.85021 54.8864 6.54802Z" fill="white"/>
<path id="Vector_3" d="M47.4221 20.3703H8.69202C6.38752 20.3678 4.17812 19.4513 2.54859 17.8217C0.919063 16.1922 0.00249695 13.9828 0 11.6783V8.69202C0.00249695 6.38752 0.919063 4.17812 2.54859 2.54859C4.17812 0.919063 6.38752 0.00249695 8.69202 0H47.4221C49.7266 0.00249695 51.936 0.919063 53.5655 2.54859C55.195 4.17812 56.1116 6.38752 56.1141 8.69202V11.6783C56.1116 13.9828 55.195 16.1922 53.5655 17.8217C51.936 19.4513 49.7266 20.3678 47.4221 20.3703ZM8.69202 1.61712C6.8163 1.61926 5.01801 2.36534 3.69168 3.69168C2.36534 5.01801 1.61926 6.8163 1.61712 8.69202V11.6783C1.61926 13.554 2.36534 15.3523 3.69168 16.6787C5.01801 18.005 6.8163 18.7511 8.69202 18.7532H47.4221C49.2978 18.7511 51.0961 18.005 52.4224 16.6787C53.7488 15.3523 54.4948 13.554 54.497 11.6783V8.69202C54.4948 6.8163 53.7488 5.01801 52.4224 3.69168C51.0961 2.36534 49.2978 1.61926 47.4221 1.61712H8.69202Z" fill="#426572"/>
<path id="Vector_4" d="M49.5476 9.7674C49.5457 11.2285 49.0966 12.6539 48.2606 13.8521C47.4245 15.0504 46.2417 15.964 44.8712 16.4701C43.5006 16.9762 42.0079 17.0506 40.5938 16.6833C39.1796 16.316 37.9118 15.5245 36.9608 14.4154C38.4331 15.1901 40.1294 15.4276 41.7578 15.0872C43.3863 14.7467 44.8453 13.8496 45.884 12.55C46.9227 11.2504 47.4762 9.62947 47.4493 7.966C47.4224 6.30252 46.8167 4.70039 45.7366 3.43506C46.888 4.04375 47.8514 4.95517 48.523 6.07106C49.1946 7.18696 49.5489 8.46499 49.5476 9.7674Z" fill="#0073E6"/>
<g id="Group 836">
<path id="Vector_5" d="M42.7583 16.8994C46.5965 16.8994 49.708 13.7879 49.708 9.9497C49.708 6.11149 46.5965 3 42.7583 3C38.9201 3 35.8086 6.11149 35.8086 9.9497C35.8086 13.7879 38.9201 16.8994 42.7583 16.8994Z" fill="#0073E6"/>
<path id="Vector_6" d="M42.7583 17.5165C41.2238 17.5165 39.7238 17.0615 38.448 16.209C37.1722 15.3565 36.1778 14.1449 35.5906 12.7272C35.0034 11.3096 34.8497 9.74965 35.1491 8.2447C35.4484 6.73975 36.1873 5.35736 37.2723 4.27234C38.3574 3.18733 39.7397 2.44843 41.2447 2.14908C42.7497 1.84972 44.3096 2.00336 45.7272 2.59057C47.1448 3.17777 48.3565 4.17217 49.209 5.44801C50.0615 6.72384 50.5165 8.22382 50.5165 9.75826C50.5143 11.8152 49.6962 13.7873 48.2417 15.2417C46.7873 16.6962 44.8152 17.5143 42.7583 17.5165ZM42.7583 4.00472C41.6203 4.00472 40.5079 4.34216 39.5618 4.97437C38.6156 5.60657 37.8782 6.50516 37.4427 7.55648C37.0072 8.6078 36.8933 9.76465 37.1153 10.8807C37.3373 11.9968 37.8852 13.022 38.6899 13.8266C39.4945 14.6313 40.5197 15.1792 41.6358 15.4012C42.7519 15.6233 43.9087 15.5093 44.96 15.0738C46.0114 14.6384 46.9099 13.9009 47.5422 12.9548C48.1744 12.0086 48.5118 10.8962 48.5118 9.75826C48.5091 8.23345 47.902 6.7719 46.8235 5.69401C45.745 4.61611 44.2831 4.00983 42.7583 4.00806V4.00472Z" fill="#426572"/>
</g>
</g>
</svg>
