<svg width="14" height="24" viewBox="0 0 14 24" fill="none" xmlns="http://www.w3.org/2000/svg">
<g id="mic">
<g id="Group">
<path id="Vector" d="M0.5 13.7227C0.5 17.3285 2.85291 19.8581 6.31413 20.1524V22.2957H2.94375C2.5622 22.2957 2.25332 22.6084 2.25332 22.9947C2.25332 23.3811 2.5622 23.6846 2.94375 23.6846H11.0563C11.4378 23.6846 11.7467 23.3811 11.7467 22.9947C11.7467 22.6084 11.4378 22.2957 11.0563 22.2957H7.6859V20.1524C11.1562 19.8581 13.5 17.3285 13.5 13.7227V11.8554C13.5 11.4691 13.2002 11.1656 12.8187 11.1656C12.4371 11.1656 12.1283 11.4691 12.1283 11.8554V13.6675C12.1283 16.8042 10.1114 18.883 7.00455 18.883C3.88854 18.883 1.87177 16.8042 1.87177 13.6675V11.8554C1.87177 11.4691 1.57198 11.1656 1.18134 11.1656C0.799791 11.1656 0.5 11.4691 0.5 11.8554V13.7227ZM3.69777 13.3916C3.69777 15.5073 5.04229 16.9974 7.00455 16.9974C8.95777 16.9974 10.3022 15.5073 10.3022 13.3916V7.60578C10.3022 5.48095 8.95777 4 7.00455 4C5.04229 4 3.69777 5.48095 3.69777 7.60578V13.3916ZM5.06954 13.3916V7.60578C5.06954 6.24442 5.84172 5.37056 7.00455 5.37056C8.16738 5.37056 8.93048 6.24442 8.93048 7.60578V13.3916C8.93048 14.7529 8.16738 15.6268 7.00455 15.6268C5.84172 15.6268 5.06954 14.7529 5.06954 13.3916Z" fill="#282A2E" fill-opacity="0.9"/>
</g>
</g>
</svg>
