<svg width="248" height="167" viewBox="0 0 248 167" fill="none" xmlns="http://www.w3.org/2000/svg">
<path d="M39.6543 50.6862H39.5949C39.5505 50.679 39.5079 50.6631 39.4697 50.6394C39.4314 50.6157 39.3982 50.5847 39.372 50.5481C39.3458 50.5115 39.327 50.4701 39.3168 50.4263C39.3067 50.3824 39.3053 50.337 39.3127 50.2926L46.4866 7.8135L23.7618 10.7841L21.8606 18.359C21.8451 18.4283 21.8079 18.4908 21.7545 18.5375C21.7011 18.5843 21.6342 18.6128 21.5635 18.6189L2.6113 20.5721C2.56644 20.577 2.52106 20.573 2.47775 20.5603C2.43443 20.5476 2.39404 20.5266 2.35887 20.4983C2.3237 20.47 2.29444 20.4351 2.27277 20.3955C2.2511 20.3559 2.23743 20.3125 2.23256 20.2676C2.22768 20.2227 2.23169 20.1774 2.24435 20.1341C2.25701 20.0907 2.27808 20.0503 2.30636 20.0152C2.33463 19.98 2.36955 19.9508 2.40914 19.9291C2.44872 19.9074 2.49218 19.8937 2.53704 19.8889L21.2591 17.9654L23.1528 10.3905C23.1698 10.3233 23.2064 10.2627 23.258 10.2164C23.3096 10.1701 23.3738 10.1402 23.4424 10.1305L46.8579 7.07086C46.9104 7.06395 46.9637 7.06906 47.0139 7.08578C47.064 7.10251 47.1098 7.13042 47.1476 7.1674C47.1853 7.20603 47.2131 7.25323 47.2287 7.30497C47.2442 7.3567 47.2469 7.41143 47.2367 7.46446L40.0108 50.3966C39.998 50.4806 39.9544 50.5567 39.8885 50.6103C39.8226 50.6638 39.7391 50.6909 39.6543 50.6862Z" fill="#D1D3D4"/>
<path d="M247.52 95.1261H247.461L0.28689 53.7684C0.242467 53.7612 0.199907 53.7453 0.161654 53.7215C0.1234 53.6978 0.0902081 53.6668 0.0639847 53.6302C0.0377613 53.5937 0.0190232 53.5523 0.00884686 53.5084C-0.00132948 53.4646 -0.00274158 53.4192 0.00468808 53.3748C0.0118974 53.3304 0.0278117 53.2878 0.0515197 53.2495C0.0752276 53.2113 0.106262 53.1781 0.142837 53.1519C0.179412 53.1257 0.220807 53.1069 0.264646 53.0967C0.308484 53.0866 0.353901 53.0851 0.398288 53.0926L247.572 94.4726C247.653 94.4894 247.726 94.5353 247.776 94.6017C247.826 94.6681 247.85 94.7505 247.844 94.8334C247.837 94.9163 247.801 94.9941 247.741 95.0521C247.682 95.1101 247.603 95.1443 247.52 95.1484V95.1261Z" fill="#D1D3D4"/>
<path d="M30.6684 86.92C35.3564 86.92 39.1568 85.8228 39.1568 84.4693C39.1568 83.1158 35.3564 82.0186 30.6684 82.0186C25.9804 82.0186 22.18 83.1158 22.18 84.4693C22.18 85.8228 25.9804 86.92 30.6684 86.92Z" fill="#D1D3D4"/>
<path d="M212.118 155.874L220.814 158.711C220.814 158.711 223.042 167.207 224.052 166.598C225.062 165.989 224.862 150.007 224.862 150.007L212.719 145.759" fill="white"/>
<path d="M223.941 166.999C223.86 166.997 223.78 166.982 223.703 166.954C222.582 166.494 221.037 161.013 220.51 159L211.999 156.253C211.907 156.22 211.831 156.154 211.786 156.066C211.742 155.979 211.733 155.878 211.762 155.785C211.792 155.691 211.859 155.614 211.946 155.569C212.034 155.525 212.136 155.517 212.23 155.547L220.933 158.377C220.992 158.396 221.044 158.43 221.086 158.476C221.127 158.521 221.157 158.577 221.171 158.636C222.04 161.941 223.295 165.647 223.904 166.226C224.364 165.179 224.572 157.471 224.491 150.297L212.608 146.138C212.515 146.105 212.438 146.037 212.395 145.948C212.352 145.859 212.346 145.756 212.378 145.663C212.411 145.569 212.479 145.492 212.568 145.449C212.657 145.406 212.76 145.4 212.853 145.432L224.988 149.68C225.06 149.707 225.123 149.754 225.168 149.816C225.213 149.878 225.238 149.953 225.241 150.029C225.315 156.074 225.285 166.315 224.253 166.939C224.156 166.985 224.048 167.005 223.941 166.999Z" fill="#282A2E" fill-opacity="0.9"/>
<path d="M158.396 146.911L154.749 154.241C154.749 154.241 142.488 152.339 143.543 154.463C144.597 156.587 161.01 166.346 161.01 166.346L167.589 152.57" fill="white"/>
<path d="M161.01 166.731C160.944 166.73 160.88 166.712 160.824 166.679C159.131 165.669 144.285 156.78 143.208 154.626C143.134 154.495 143.098 154.344 143.106 154.193C143.114 154.042 143.165 153.896 143.253 153.772C144.248 152.413 151.816 153.423 154.541 153.832L158.069 146.74C158.113 146.652 158.191 146.586 158.284 146.555C158.377 146.525 158.479 146.532 158.566 146.576C158.654 146.621 158.72 146.698 158.751 146.791C158.781 146.884 158.774 146.986 158.73 147.074L155.12 154.411C155.084 154.48 155.028 154.536 154.959 154.572C154.89 154.608 154.811 154.622 154.734 154.612C149.224 153.757 144.159 153.572 143.884 154.218C143.879 154.242 143.879 154.268 143.884 154.292C144.627 155.777 154.281 161.912 160.861 165.833L167.263 152.421C167.305 152.331 167.381 152.262 167.474 152.229C167.568 152.195 167.671 152.2 167.76 152.242C167.85 152.285 167.919 152.361 167.952 152.454C167.986 152.548 167.981 152.65 167.938 152.74L161.351 166.516C161.306 166.61 161.226 166.682 161.128 166.717L161.01 166.731Z" fill="#282A2E" fill-opacity="0.9"/>
<path d="M176.917 93.1655L155.477 148.188L167.612 158.711L192.498 117.636C192.498 117.636 189.468 139.596 195.728 148.18C202.813 157.902 213.938 158.481 213.938 158.481L216.166 145.537C216.166 145.537 206.392 142.64 206.66 131.308C206.927 119.975 209.898 100.562 209.898 100.562L176.917 93.1655Z" fill="#282A2E" fill-opacity="0.9"/>
<path d="M189.512 37.9648C189.512 37.9648 186.534 41.886 187.054 42.7772C187.574 43.6683 189.46 43.2228 189.46 43.2228" fill="white"/>
<path d="M188.443 43.7054C188.116 43.7434 187.784 43.6948 187.482 43.5645C187.18 43.4342 186.917 43.2266 186.72 42.9627C186.155 41.975 188.279 38.9822 189.215 37.7642C189.245 37.7252 189.282 37.6925 189.324 37.6678C189.367 37.6431 189.414 37.6271 189.462 37.6205C189.511 37.614 189.56 37.6171 189.608 37.6296C189.655 37.6422 189.7 37.6639 189.739 37.6937C189.778 37.7234 189.81 37.7606 189.835 37.803C189.86 37.8454 189.876 37.8922 189.882 37.9409C189.889 37.9895 189.886 38.0389 189.873 38.0863C189.861 38.1338 189.839 38.1782 189.809 38.2173C188.324 40.1704 187.18 42.2349 187.366 42.6211C187.552 43.0073 188.851 43.0073 189.364 42.881C189.411 42.8701 189.461 42.8687 189.509 42.877C189.558 42.8853 189.604 42.9031 189.645 42.9293C189.687 42.9555 189.722 42.9897 189.751 43.0299C189.779 43.07 189.799 43.1154 189.809 43.1633C189.832 43.2588 189.815 43.3592 189.764 43.4427C189.712 43.5262 189.63 43.5859 189.534 43.6088C189.175 43.6782 188.809 43.7105 188.443 43.7054Z" fill="#282A2E" fill-opacity="0.9"/>
<path d="M158.574 63.4594C158.574 63.4594 159.829 66.3632 167.485 67.2766C171.607 67.7668 182.108 68.101 182.108 68.101L188.621 58.2758C188.621 58.2758 176.182 66.3632 156.264 56.7905C146.884 52.2827 158.574 63.4594 158.574 63.4594Z" fill="white"/>
<path d="M182.138 68.4726C182.034 68.4726 171.577 68.131 167.485 67.6409C160.274 66.7943 158.574 64.1727 158.291 63.6826C155.699 61.2022 151.556 56.9097 152.41 55.6769C152.848 55.0457 154.021 55.2759 156.472 56.4196C175.951 65.7917 188.339 58.0088 188.465 57.9048C188.536 57.8597 188.621 57.8401 188.705 57.8494C188.788 57.8587 188.867 57.8962 188.926 57.9559C188.986 58.0156 189.023 58.0938 189.033 58.1776C189.042 58.2615 189.022 58.346 188.977 58.4173L182.464 68.2499C182.436 68.3135 182.39 68.368 182.332 68.4073C182.275 68.4466 182.207 68.4692 182.138 68.4726ZM158.915 63.2742C158.915 63.3261 160.274 66.0145 167.559 66.876C171.273 67.3216 180.452 67.6186 181.944 67.6929L187.544 59.249C183.831 60.9868 172.357 64.8931 156.138 57.0879C153.442 55.7957 153.011 56.0705 152.996 56.0779C152.773 56.6572 155.44 59.91 158.833 63.1628C158.87 63.2036 158.898 63.2516 158.915 63.3039V63.2742Z" fill="#282A2E" fill-opacity="0.9"/>
<path d="M190.44 32.5807C188.628 33.8803 188.955 36.888 188.822 38.8263C188.668 41.5493 188.576 44.2723 188.547 46.9954C188.547 48.7257 193.003 49.0525 193.819 48.5846L192.683 55.3649L202.338 52.3944L202.546 44.5001C202.546 44.5001 199.575 44.3293 198.09 40.6978C196.604 37.0662 196.991 31.6598 196.991 31.6598C196.991 31.6598 192.253 31.3182 190.44 32.5807Z" fill="white"/>
<path d="M192.683 55.7586C192.593 55.7567 192.506 55.7225 192.438 55.662C192.39 55.6207 192.352 55.5676 192.33 55.5077C192.308 55.4479 192.302 55.3834 192.312 55.3204L193.359 49.1119C191.906 49.2853 190.433 49.0432 189.111 48.4138C188.84 48.2906 188.608 48.0937 188.443 47.8457C188.277 47.5976 188.185 47.3082 188.175 47.0102C188.175 44.2847 188.302 41.5221 188.45 38.8412C188.45 38.5144 188.45 38.1579 188.487 37.794C188.487 35.878 188.562 33.5016 190.225 32.3133C192.089 30.984 196.768 31.3033 196.968 31.3108C197.068 31.3184 197.16 31.3647 197.225 31.4397C197.29 31.5148 197.324 31.6125 197.317 31.7118C197.317 31.7638 196.916 37.0737 198.387 40.5789C199.79 43.9357 202.427 44.1436 202.538 44.1511C202.634 44.1568 202.724 44.1995 202.789 44.2701C202.854 44.3407 202.889 44.4338 202.887 44.5298L202.65 52.3944C202.646 52.4719 202.62 52.5467 202.573 52.609C202.527 52.6713 202.463 52.7181 202.39 52.7434L192.735 55.714L192.683 55.7586ZM193.82 48.2356C193.896 48.2359 193.971 48.2592 194.035 48.3024C194.093 48.3411 194.139 48.3966 194.165 48.4615C194.192 48.5264 194.198 48.5978 194.183 48.6663L193.144 54.8525L201.944 52.1122L202.137 44.812C201.261 44.6412 198.988 43.9208 197.681 40.8314C196.374 37.7421 196.471 33.3159 196.538 32.0088C195.416 31.9643 192.015 31.9049 190.641 32.8852C189.282 33.858 189.245 36.0265 189.215 37.7718C189.215 38.1579 189.215 38.5144 189.178 38.8486C189.022 41.5518 188.933 44.2996 188.903 47.0177C188.903 47.2924 189.089 47.5449 189.475 47.7603C190.765 48.3718 192.218 48.554 193.619 48.2801C193.68 48.2455 193.75 48.23 193.82 48.2356Z" fill="#282A2E" fill-opacity="0.9"/>
<path d="M188.539 53.189C183.638 56.9022 171.184 66.8685 171.184 66.8685L177.021 79.6122L181.529 76.2035L176.917 93.1654C176.917 93.1654 197.993 109.006 208.635 102.76C208.635 102.76 213.537 64.4178 209.987 55.9739C206.437 47.5301 193.433 49.4758 188.539 53.189Z" fill="#69A5EB"/>
<path d="M210.328 59.4421C210.024 57.7066 209.364 56.0526 208.391 54.5842C207.417 53.1158 206.15 51.8646 204.669 50.9092C206.374 51.4395 208.039 52.0897 209.652 52.8549C209.652 52.8549 213.447 54.5407 214.212 60.1996L210.581 60.0288" fill="#282A2E" fill-opacity="0.9"/>
<path d="M217.673 59.182C217.673 59.182 206.303 53.9835 201.112 56.7758C195.921 59.5682 185.687 94.0193 185.836 95.9205C185.985 97.8217 193.641 102.337 201.892 103.221C210.143 104.104 212.735 103.473 213.96 102.084C215.185 100.696 218.988 85.6201 218.245 82.5752C217.502 79.5304 215.326 79.6047 215.326 79.6047C215.326 79.6047 220.577 62.2268 217.673 59.182Z" fill="#282A2E" fill-opacity="0.9"/>
<path d="M189.215 92.9648L188.91 92.3632L181.113 77.0054L180.036 82.4489C180.036 82.4489 184.158 94.9922 187.321 97.7771" fill="#282A2E" fill-opacity="0.9"/>
<path d="M188.755 45.7549C188.755 45.7549 190.782 47.1956 192.045 45.0791L188.755 45.7549Z" fill="white"/>
<path d="M190.24 46.6016C189.633 46.5854 189.043 46.3974 188.539 46.0595C188.499 46.032 188.465 45.9969 188.439 45.9561C188.413 45.9153 188.395 45.8697 188.387 45.822C188.379 45.7743 188.38 45.7253 188.391 45.6781C188.402 45.6309 188.422 45.5863 188.45 45.547C188.507 45.4663 188.593 45.4111 188.69 45.393C188.787 45.375 188.888 45.3956 188.97 45.4505C189.438 45.7686 190.006 45.9034 190.567 45.8292C190.814 45.7629 191.046 45.6454 191.245 45.4842C191.445 45.3231 191.608 45.1218 191.725 44.8935C191.776 44.8087 191.858 44.7472 191.954 44.7222C192.05 44.6972 192.152 44.7107 192.238 44.7598C192.28 44.785 192.316 44.8183 192.346 44.8577C192.375 44.8972 192.396 44.9421 192.408 44.9897C192.419 45.0374 192.421 45.0869 192.414 45.1354C192.406 45.1839 192.389 45.2304 192.364 45.2723C192.197 45.5917 191.963 45.8716 191.679 46.0932C191.394 46.3149 191.066 46.473 190.715 46.557C190.558 46.5862 190.399 46.6011 190.24 46.6016Z" fill="#282A2E" fill-opacity="0.9"/>
<path d="M196.196 39.6582C196.316 38.9817 196.622 38.3518 197.08 37.8388C197.376 37.4031 197.736 37.015 198.149 36.6877C198.354 36.5214 198.594 36.4032 198.851 36.3415C199.108 36.2798 199.376 36.2763 199.634 36.3312C199.859 36.4031 200.065 36.5217 200.241 36.6791C200.416 36.8365 200.556 37.0293 200.652 37.2447C200.839 37.6774 200.926 38.1473 200.904 38.6185C200.883 39.6465 200.592 40.6508 200.061 41.5307C199.529 42.4106 198.775 43.1351 197.874 43.6314L198.038 43.4754" fill="white"/>
<path d="M197.882 44.0021C197.808 44.0011 197.737 43.9782 197.676 43.9364C197.616 43.8946 197.569 43.8358 197.542 43.7673C197.515 43.6989 197.509 43.624 197.524 43.5521C197.54 43.4802 197.576 43.4145 197.629 43.3634L197.785 43.2075C197.854 43.1426 197.944 43.1056 198.038 43.1035C198.784 42.6186 199.402 41.9598 199.838 41.1837C200.274 40.4077 200.515 39.5374 200.541 38.6477C200.56 38.2307 200.487 37.8146 200.325 37.4297C200.255 37.2577 200.15 37.1024 200.015 36.9744C199.881 36.8463 199.721 36.7484 199.545 36.6871C199.339 36.6474 199.126 36.6534 198.922 36.7047C198.718 36.7561 198.528 36.8514 198.365 36.9841C197.985 37.2989 197.652 37.6665 197.377 38.0758C196.962 38.5358 196.682 39.101 196.567 39.7096C196.56 39.8081 196.513 39.8994 196.438 39.9635C196.362 40.0276 196.265 40.0591 196.166 40.0513C196.068 40.0434 195.977 39.9967 195.913 39.9215C195.848 39.8463 195.817 39.7487 195.825 39.6502C195.951 38.9035 196.283 38.2067 196.783 37.6377C197.099 37.1642 197.484 36.7411 197.926 36.3826C198.18 36.1825 198.475 36.0419 198.79 35.9712C199.105 35.9005 199.431 35.9015 199.746 35.9742C200.022 36.0586 200.277 36.202 200.492 36.3943C200.707 36.5866 200.878 36.8233 200.994 37.0881C201.207 37.5716 201.306 38.0975 201.283 38.6254C201.258 39.7191 200.947 40.7871 200.38 41.7228C199.813 42.6585 199.011 43.429 198.053 43.9576C198.001 43.9871 197.942 44.0025 197.882 44.0021Z" fill="#282A2E" fill-opacity="0.9"/>
<path d="M203.518 48.1981C203.428 48.2009 203.339 48.1779 203.262 48.1319C203.184 48.0858 203.121 48.0187 203.08 47.9382C203.046 47.8539 203.038 47.7609 203.058 47.6719C203.078 47.583 203.124 47.5022 203.192 47.4407C203.264 47.3881 203.351 47.3598 203.44 47.3598C203.53 47.3598 203.617 47.3881 203.689 47.4407C204.394 47.1883 205.039 46.7946 205.585 46.2838C206.132 45.7729 206.568 45.1557 206.868 44.4701C208.568 40.8163 208.457 35.6252 206.586 31.563C206.055 30.1649 205.062 28.9907 203.771 28.2359C202.583 27.6492 200.8 27.7903 200.058 28.9786C200.015 29.0449 199.952 29.0959 199.879 29.1242C199.805 29.1525 199.724 29.1566 199.648 29.1359C199.572 29.1152 199.504 29.0708 199.455 29.0091C199.406 28.9475 199.378 28.8717 199.374 28.7929C199.3 27.2259 197.763 26.0674 196.322 25.8223C194.693 25.6776 193.063 26.08 191.688 26.966C191.094 27.2928 190.515 27.6641 189.943 28.028C189.085 28.5954 188.192 29.1089 187.269 29.5653C186.891 29.7578 186.478 29.8733 186.055 29.9051C185.632 29.937 185.207 29.8846 184.804 29.7509L184.715 29.7064C184.618 30.8704 184.807 32.0404 185.264 33.1151C185.858 34.2885 187.351 35.2168 188.569 34.6598C188.659 34.6196 188.761 34.6166 188.852 34.6514C188.944 34.6862 189.019 34.7559 189.059 34.8454C189.097 34.9353 189.099 35.0365 189.065 35.1278C189.03 35.2191 188.962 35.2936 188.874 35.3356C187.262 36.0782 185.361 34.9568 184.603 33.4493C183.846 31.9417 183.942 30.1742 184.009 28.7483C184.012 28.6605 184.047 28.5768 184.107 28.5126C184.167 28.4485 184.249 28.4082 184.336 28.3993C184.423 28.3869 184.511 28.4064 184.585 28.4542C184.659 28.502 184.713 28.5748 184.737 28.6592C184.762 28.752 184.808 28.8375 184.873 28.9086C184.938 28.9796 185.018 29.0342 185.108 29.0677C185.725 29.2454 186.386 29.1817 186.958 28.8894C187.851 28.4478 188.717 27.9518 189.549 27.4042C190.121 27.0403 190.715 26.6615 191.332 26.3273C192.846 25.3564 194.643 24.9222 196.434 25.0945C197.224 25.2067 197.97 25.5292 198.593 26.0282C199.216 26.5273 199.694 27.1846 199.976 27.9314C200.564 27.4924 201.263 27.2264 201.993 27.1634C202.724 27.1005 203.458 27.243 204.113 27.575C205.566 28.4055 206.683 29.7194 207.269 31.2882C209.237 35.5435 209.348 40.9425 207.551 44.8266C207.199 45.6482 206.672 46.383 206.006 46.9795C205.34 47.576 204.552 48.0198 203.697 48.2798L203.518 48.1981Z" fill="#282A2E" fill-opacity="0.9"/>
<path d="M193.82 48.6068C195.178 48.2643 196.41 47.5402 197.369 46.52C197.369 46.52 196.946 50.6565 193.315 51.6294L193.82 48.6068Z" fill="#282A2E" fill-opacity="0.9"/>
<path d="M193.315 52.0007C193.221 52.0007 193.132 51.9663 193.062 51.9041C193.018 51.8598 192.984 51.8061 192.964 51.7469C192.943 51.6878 192.936 51.6247 192.943 51.5625L193.456 48.5474C193.467 48.4753 193.498 48.4079 193.547 48.3538C193.596 48.2996 193.66 48.2611 193.731 48.2429C195.009 47.9253 196.168 47.2474 197.072 46.2898C197.122 46.2267 197.191 46.1814 197.269 46.1608C197.346 46.1402 197.429 46.1454 197.503 46.1755C197.578 46.2057 197.64 46.2591 197.682 46.3279C197.723 46.3968 197.741 46.4772 197.733 46.5571C197.733 46.6017 197.243 50.961 193.411 51.9858L193.315 52.0007ZM194.146 48.9039L193.783 51.0798C194.502 50.7631 195.142 50.2902 195.655 49.6954C196.169 49.1007 196.544 48.399 196.753 47.6414C195.961 48.2043 195.079 48.631 194.146 48.9039Z" fill="#282A2E" fill-opacity="0.9"/>
<path d="M187.945 53.5306C193.018 55.0159 198.164 55.2981 201.038 62.0561L204.751 60.3703C204.751 60.3703 202.523 52.9439 192.253 50.8274C192.253 50.7977 189.846 50.612 187.945 53.5306Z" fill="#282A2E" fill-opacity="0.9"/>
<path d="M148.088 66.5562C147.07 61.833 143.312 43.4526 142.317 38.5883C142.289 38.4487 142.292 38.3043 142.328 38.1664C142.364 38.0285 142.432 37.9007 142.525 37.793C142.618 37.6853 142.735 37.6005 142.867 37.5452C142.998 37.49 143.14 37.4657 143.283 37.4744L154.615 38.217C154.936 38.2445 155.239 38.3752 155.478 38.5895C155.718 38.8037 155.882 39.09 155.945 39.4052L160.713 65.9844C160.734 66.099 160.731 66.2168 160.704 66.3303C160.678 66.4438 160.628 66.5506 160.558 66.6441C160.489 66.7375 160.4 66.8155 160.299 66.8732C160.198 66.931 160.086 66.9672 159.97 66.9795L149.499 67.6108C149.175 67.6375 148.853 67.545 148.593 67.3508C148.334 67.1565 148.154 66.8739 148.088 66.5562Z" fill="#282A2E" fill-opacity="0.9"/>
<path d="M143.743 39.1602L149.409 65.6576L158.915 65.5537L154.162 39.7617L143.743 39.1602Z" fill="white"/>
<path d="M149.409 66.029C149.324 66.0291 149.241 65.9995 149.174 65.9454C149.108 65.8912 149.063 65.8158 149.045 65.732L143.379 39.2345C143.368 39.1785 143.37 39.1209 143.384 39.0657C143.398 39.0105 143.424 38.9591 143.461 38.9152C143.498 38.8721 143.545 38.8383 143.598 38.8164C143.651 38.7945 143.708 38.7851 143.765 38.7889L154.162 39.3905C154.245 39.397 154.323 39.4303 154.384 39.4853C154.446 39.5402 154.488 39.6139 154.504 39.6949L159.257 65.4869C159.268 65.54 159.267 65.5949 159.254 65.6475C159.241 65.7002 159.217 65.7494 159.183 65.7914C159.147 65.8317 159.104 65.8644 159.055 65.8874C159.007 65.9104 158.954 65.9232 158.9 65.9251L149.387 66.029H149.409ZM144.211 39.5538L149.706 65.279L158.47 65.1898L153.85 40.1182L144.211 39.5538Z" fill="#282A2E" fill-opacity="0.9"/>
<path d="M176.717 77.9932C172.778 80.5611 168.135 81.831 163.438 81.6247C158.923 81.3202 155.113 77.4807 152.076 74.4953C148.603 70.9524 145.342 67.2079 142.31 63.2814C141.731 62.5388 141.248 61.306 142.072 60.8901C141.861 60.6254 141.71 60.3183 141.628 59.9897C141.546 59.6611 141.537 59.3187 141.599 58.986C141.662 58.6533 141.796 58.338 141.992 58.0617C142.187 57.7853 142.44 57.5545 142.733 57.3848C142.473 56.7684 142.206 55.5357 142.585 54.9118C142.585 54.9118 143.327 53.7904 143.402 54.4068C143.428 53.2647 143.781 52.154 144.419 51.2061L145.808 54.9193C145.934 54.1098 147.122 54.7039 147.924 55.8476C148.726 56.9912 148.979 59.3454 149.061 59.5608C149.061 59.5608 160.267 73.4408 164.448 72.3045C167.221 71.4921 169.89 70.3607 172.402 68.9329" fill="white"/>
<path d="M164.73 82.0405C164.3 82.0405 163.861 82.0256 163.416 81.9959C158.871 81.6915 155.083 77.9708 152.031 74.978L151.816 74.7626C148.329 71.2107 145.058 67.4537 142.02 63.5116C141.759 63.2173 141.559 62.8741 141.431 62.5018C141.304 62.1296 141.252 61.7357 141.278 61.3431C141.319 61.147 141.411 60.9653 141.545 60.8158C141.208 60.2308 141.097 59.5423 141.234 58.881C141.371 58.2198 141.746 57.6318 142.288 57.2288C142.08 56.5827 141.842 55.4242 142.288 54.7187C142.471 54.3987 142.725 54.1245 143.03 53.9166C143.163 52.8746 143.531 51.8765 144.107 50.9981C144.145 50.9415 144.197 50.8963 144.259 50.8675C144.32 50.8387 144.389 50.8274 144.456 50.8347C144.524 50.8417 144.589 50.8677 144.642 50.9098C144.696 50.9518 144.737 51.0081 144.761 51.0723L145.941 54.1766H146.016C146.714 54.0058 147.657 54.8004 148.244 55.6099C148.835 56.676 149.215 57.8459 149.365 59.0557C149.365 59.1968 149.41 59.3008 149.417 59.3676C152.536 63.2145 161.151 72.8095 164.366 71.9183C167.11 71.1175 169.752 70.001 172.238 68.5913C172.28 68.5658 172.326 68.5489 172.374 68.5415C172.421 68.5341 172.47 68.5363 172.517 68.5481C172.564 68.5598 172.609 68.5809 172.647 68.61C172.686 68.6391 172.719 68.6756 172.743 68.7175C172.792 68.8034 172.806 68.9052 172.781 69.001C172.756 69.0967 172.694 69.1789 172.61 69.2299C170.068 70.6711 167.37 71.8148 164.567 72.6387C160.245 73.8195 149.922 61.1945 148.771 59.7538C148.751 59.7258 148.733 59.6959 148.719 59.6647C148.668 59.5052 148.633 59.341 148.615 59.1745C148.479 58.0635 148.141 56.9864 147.62 55.996C147.018 55.1494 146.335 54.8078 146.179 54.8598C146.167 54.9436 146.129 55.0215 146.07 55.0827C146.012 55.1439 145.935 55.1854 145.852 55.2014C145.773 55.2142 145.692 55.1999 145.622 55.1608C145.552 55.1218 145.497 55.0602 145.466 54.986L144.352 52.0155C143.964 52.7203 143.765 53.5132 143.773 54.3177C143.779 54.3862 143.766 54.4551 143.735 54.5167C143.704 54.5783 143.657 54.63 143.598 54.6662C143.54 54.7024 143.472 54.7217 143.403 54.7217C143.335 54.7218 143.267 54.7028 143.208 54.6667C143.092 54.7879 142.988 54.9197 142.897 55.0603C142.697 55.7666 142.761 56.5211 143.075 57.1843C143.112 57.2704 143.114 57.3673 143.083 57.4554C143.051 57.5436 142.987 57.6165 142.904 57.6596C142.656 57.7964 142.442 57.9879 142.279 58.2194C142.115 58.451 142.007 58.7166 141.961 58.9963C141.9 59.272 141.904 59.5578 141.97 59.832C142.037 60.1062 142.166 60.3614 142.347 60.5781C142.386 60.6205 142.415 60.6715 142.43 60.7271C142.446 60.7826 142.448 60.841 142.436 60.8975C142.425 60.9522 142.401 61.0038 142.368 61.0487C142.335 61.0935 142.292 61.1306 142.243 61.1574C142.186 61.1846 142.135 61.225 142.097 61.2754C142.058 61.3257 142.032 61.3846 142.02 61.447C142.014 62.0162 142.22 62.5672 142.6 62.9917C145.622 66.9077 148.873 70.6422 152.336 74.1759L152.551 74.3913C155.521 77.295 159.235 80.9043 163.46 81.1939C170.694 81.684 176.442 77.6738 176.501 77.6366C176.54 77.6032 176.586 77.5782 176.635 77.5633C176.684 77.5484 176.736 77.5439 176.787 77.5501C176.838 77.5563 176.888 77.573 176.932 77.5992C176.976 77.6255 177.015 77.6607 177.045 77.7025C177.075 77.7444 177.095 77.792 177.106 77.8424C177.117 77.8927 177.117 77.9447 177.106 77.9951C177.095 78.0455 177.074 78.0931 177.044 78.1349C177.014 78.1768 176.976 78.2119 176.932 78.2382C173.31 80.6418 169.077 81.961 164.73 82.0405Z" fill="#282A2E" fill-opacity="0.9"/>
<path d="M162.992 59.5904C162.992 59.5904 158.18 55.038 157.46 55.8104C156.739 56.5827 158.648 58.6621 159.687 59.8504C160.727 61.0386 161.915 62.5907 161.915 62.5907" fill="white"/>
<path d="M161.908 62.9622C161.851 62.9616 161.794 62.9479 161.742 62.9222C161.691 62.8965 161.646 62.8594 161.611 62.8137C161.611 62.8137 160.415 61.2615 159.383 60.0956L159.168 59.8431C157.876 58.3578 156.264 56.5309 157.17 55.558C157.298 55.4285 157.471 55.3539 157.653 55.3501C158.952 55.3501 162.51 58.6549 163.208 59.3232C163.251 59.354 163.287 59.3937 163.314 59.4396C163.34 59.4856 163.357 59.5367 163.362 59.5896C163.367 59.6424 163.361 59.6958 163.344 59.746C163.327 59.7963 163.299 59.8423 163.263 59.8809C163.226 59.9195 163.182 59.9498 163.133 59.9698C163.083 59.9899 163.031 59.9991 162.977 59.9969C162.924 59.9948 162.872 59.9812 162.825 59.9572C162.778 59.9333 162.736 59.8994 162.703 59.8579C160.475 57.7191 158.128 55.9888 157.645 56.1002C157.244 56.5458 159.034 58.5806 159.702 59.3529L159.925 59.6054C160.958 60.7937 162.153 62.3458 162.153 62.3681C162.213 62.4459 162.24 62.5444 162.227 62.6418C162.215 62.7392 162.164 62.8277 162.086 62.8879C162.035 62.9283 161.973 62.9539 161.908 62.9622Z" fill="#282A2E" fill-opacity="0.9"/>
<path d="M181.113 77.0056C181.113 77.0056 187.054 71.4283 190.106 69.1484L181.113 77.0056Z" fill="white"/>
<path d="M181.113 77.3767C181.012 77.3737 180.916 77.331 180.845 77.2579C180.811 77.2234 180.783 77.1823 180.764 77.1371C180.745 77.0918 180.736 77.0433 180.736 76.9942C180.736 76.9452 180.745 76.8967 180.764 76.8515C180.783 76.8062 180.811 76.7651 180.845 76.7306C180.905 76.6786 186.853 71.1162 189.869 68.8512C189.948 68.794 190.047 68.7697 190.143 68.7836C190.24 68.7974 190.328 68.8483 190.388 68.9254C190.448 69.0042 190.473 69.1033 190.459 69.2008C190.445 69.2982 190.393 69.3862 190.314 69.4453C187.344 71.6732 181.402 77.2208 181.35 77.2727C181.287 77.336 181.202 77.3731 181.113 77.3767Z" fill="#282A2E" fill-opacity="0.9"/>
<path d="M192.497 95.965H192.445C192.349 95.9502 192.262 95.8987 192.202 95.8212C192.143 95.7437 192.115 95.6462 192.126 95.5491C192.193 95.0292 193.797 82.8573 196.664 79.5748C199.53 76.2924 213.433 79.3223 214.019 79.456C214.068 79.4667 214.114 79.487 214.155 79.5155C214.196 79.5441 214.231 79.5805 214.258 79.6225C214.285 79.6646 214.303 79.7116 214.312 79.7607C214.321 79.8099 214.32 79.8603 214.309 79.909C214.298 79.9578 214.278 80.004 214.249 80.0449C214.221 80.0859 214.184 80.1208 214.142 80.1477C214.1 80.1746 214.053 80.1929 214.004 80.2017C213.955 80.2104 213.905 80.2094 213.856 80.1987C209.972 79.3149 199.426 77.5623 197.221 80.0798C194.495 83.1989 192.876 95.5416 192.861 95.6753C192.843 95.7578 192.797 95.8315 192.73 95.8842C192.664 95.9368 192.582 95.9653 192.497 95.965Z" fill="white"/>
<path d="M201.164 75.7501C201.125 75.7572 201.085 75.7572 201.045 75.7501C200.999 75.7358 200.957 75.7124 200.92 75.6814C200.883 75.6504 200.852 75.6124 200.83 75.5696C200.808 75.5267 200.795 75.4799 200.791 75.4319C200.787 75.3838 200.793 75.3355 200.808 75.2896C201.941 71.9671 202.893 68.5856 203.659 65.16C203.991 64.0708 203.975 62.9055 203.615 61.8255C203.484 61.5538 203.298 61.3127 203.067 61.1182C202.837 60.9237 202.568 60.78 202.278 60.6967C202.098 60.638 201.908 60.6202 201.72 60.6446C201.532 60.669 201.353 60.735 201.194 60.8378C201.114 60.893 201.015 60.9146 200.919 60.898C200.824 60.8813 200.738 60.8277 200.681 60.7487C200.627 60.6666 200.606 60.5663 200.624 60.4692C200.642 60.372 200.697 60.2858 200.778 60.2289C201.025 60.0657 201.304 59.959 201.597 59.9167C201.89 59.8743 202.188 59.8972 202.471 59.9838C202.867 60.0951 203.234 60.2899 203.548 60.5551C203.862 60.8202 204.115 61.1497 204.291 61.5211C204.723 62.7416 204.756 64.0676 204.387 65.3085C203.616 68.7597 202.656 72.1661 201.513 75.5124C201.486 75.5828 201.438 75.6433 201.376 75.6857C201.313 75.7282 201.24 75.7506 201.164 75.7501Z" fill="white"/>
<path d="M209.823 90.8781C210.533 90.8781 211.108 90.3029 211.108 89.5934C211.108 88.8838 210.533 88.3086 209.823 88.3086C209.114 88.3086 208.539 88.8838 208.539 89.5934C208.539 90.3029 209.114 90.8781 209.823 90.8781Z" fill="white"/>
<path d="M151.362 55.2978C151.199 54.9562 151.028 54.622 150.865 54.2952C150.338 53.2258 149.818 52.1564 149.283 51.0944C149.075 50.7143 148.965 50.2878 148.964 49.8542C148.979 49.2756 149.201 48.7217 149.592 48.2942C149.982 47.8666 150.513 47.594 151.088 47.5263C151.663 47.4586 152.242 47.6004 152.721 47.9257C153.2 48.2509 153.545 48.7379 153.694 49.2972C153.845 49.857 153.781 50.4527 153.516 50.9682L152.187 53.6417L151.407 55.2532C151.394 55.2696 151.379 55.2845 151.362 55.2978ZM151.362 51.0944C151.681 51.0944 151.987 50.9677 152.213 50.7421C152.439 50.5164 152.565 50.2104 152.565 49.8914C152.565 49.5723 152.439 49.2663 152.213 49.0407C151.987 48.815 151.681 48.6883 151.362 48.6883C151.043 48.6883 150.737 48.815 150.512 49.0407C150.286 49.2663 150.159 49.5723 150.159 49.8914C150.159 50.2104 150.286 50.5164 150.512 50.7421C150.737 50.9677 151.043 51.0944 151.362 51.0944Z" fill="#0073E6"/>
<path d="M192.898 116.596C192.819 116.594 192.742 116.567 192.679 116.518C192.617 116.469 192.571 116.402 192.549 116.325C192.528 116.249 192.531 116.167 192.559 116.093C192.587 116.019 192.639 115.955 192.705 115.912C192.75 115.912 197.421 112.897 198.194 107.476C198.21 107.379 198.263 107.293 198.342 107.234C198.421 107.176 198.52 107.151 198.617 107.164C198.713 107.179 198.799 107.23 198.858 107.308C198.916 107.386 198.942 107.483 198.929 107.58C198.104 113.35 193.3 116.417 193.092 116.544C193.034 116.579 192.966 116.597 192.898 116.596Z" fill="white"/>
<path d="M122.088 158.896C121.891 158.896 121.702 158.818 121.563 158.679C121.423 158.54 121.345 158.351 121.345 158.154C121.345 157.957 121.423 157.768 121.563 157.629C121.702 157.489 121.891 157.411 122.088 157.411C124.53 157.324 126.964 157.076 129.373 156.669C129.57 156.636 129.772 156.683 129.934 156.799C130.096 156.916 130.206 157.092 130.238 157.289C130.271 157.486 130.224 157.687 130.107 157.85C129.991 158.012 129.815 158.121 129.618 158.154C127.142 158.565 124.641 158.813 122.132 158.896H122.088ZM114.661 158.592H114.565C112.02 158.327 109.532 157.668 107.19 156.639C107.012 156.555 106.874 156.404 106.808 156.219C106.741 156.034 106.75 155.829 106.834 155.651C106.918 155.473 107.069 155.335 107.254 155.268C107.439 155.202 107.643 155.211 107.822 155.295C110.024 156.255 112.361 156.871 114.75 157.122C114.947 157.133 115.132 157.223 115.262 157.371C115.393 157.518 115.46 157.712 115.448 157.909C115.437 158.106 115.347 158.29 115.199 158.421C115.052 158.552 114.858 158.619 114.661 158.607V158.592ZM138.782 156.297C138.645 156.301 138.51 156.262 138.396 156.186C138.062 155.985 137.616 156 136.866 156.245C136.773 156.28 136.673 156.295 136.573 156.29C136.473 156.285 136.376 156.26 136.286 156.217C136.196 156.173 136.116 156.112 136.05 156.037C135.984 155.961 135.935 155.874 135.904 155.779C135.873 155.684 135.861 155.584 135.87 155.484C135.878 155.385 135.907 155.288 135.954 155.2C136.001 155.112 136.065 155.034 136.143 154.971C136.22 154.908 136.31 154.862 136.406 154.834C136.843 154.636 137.321 154.54 137.801 154.556C138.282 154.571 138.752 154.697 139.176 154.923C139.259 154.975 139.331 155.042 139.388 155.122C139.445 155.201 139.485 155.291 139.507 155.386C139.53 155.482 139.533 155.58 139.516 155.677C139.5 155.773 139.465 155.865 139.414 155.948C139.347 156.055 139.254 156.143 139.143 156.205C139.033 156.266 138.908 156.297 138.782 156.297ZM102.809 151.314C102.643 151.321 102.48 151.272 102.345 151.175C102.211 151.078 102.112 150.939 102.066 150.779C101.599 148.933 101.318 147.045 101.227 145.143C101.175 144.526 101.13 143.91 101.063 143.294C101.044 143.097 101.103 142.9 101.228 142.747C101.354 142.593 101.535 142.496 101.732 142.477C101.929 142.457 102.126 142.516 102.279 142.642C102.432 142.767 102.529 142.948 102.549 143.145C102.616 143.769 102.668 144.4 102.72 145.024C102.799 146.826 103.06 148.615 103.499 150.364C103.554 150.553 103.532 150.756 103.438 150.929C103.343 151.101 103.183 151.229 102.994 151.284C102.936 151.302 102.877 151.312 102.816 151.314H102.809ZM53.2596 144.237C52.2643 144.238 51.2706 144.156 50.289 143.992C50.1915 143.975 50.0982 143.939 50.0144 143.887C49.9307 143.834 49.8581 143.766 49.8009 143.685C49.7436 143.604 49.7029 143.513 49.6809 143.417C49.6588 143.32 49.6561 143.22 49.6726 143.123C49.6892 143.025 49.7248 142.932 49.7775 142.848C49.8301 142.764 49.8987 142.692 49.9794 142.635C50.0601 142.577 50.1513 142.537 50.2477 142.515C50.3442 142.493 50.444 142.49 50.5415 142.506C52.9013 142.866 55.3077 142.775 57.6338 142.239C57.8307 142.197 58.0364 142.234 58.2057 142.344C58.3749 142.453 58.4937 142.625 58.5361 142.822C58.5784 143.019 58.5408 143.225 58.4315 143.394C58.3221 143.563 58.1501 143.682 57.9531 143.724C56.4144 144.065 54.843 144.237 53.267 144.237H53.2596ZM64.778 141.311C64.62 141.293 64.472 141.225 64.3557 141.116C64.2393 141.008 64.1608 140.865 64.1317 140.709C64.1026 140.552 64.1245 140.391 64.194 140.248C64.2636 140.105 64.3771 139.988 64.5181 139.915C65.5132 139.484 66.5009 139.038 67.4886 138.585C68.6694 138.043 69.8948 137.486 71.1127 136.966L71.3207 136.877C71.4109 136.84 71.5076 136.82 71.6053 136.82C71.703 136.82 71.7998 136.839 71.8901 136.876C71.9805 136.913 72.0626 136.968 72.1318 137.037C72.201 137.106 72.256 137.188 72.2935 137.278C72.3311 137.368 72.3505 137.465 72.3506 137.563C72.3508 137.661 72.3317 137.757 72.2945 137.848C72.2573 137.938 72.2026 138.02 72.1336 138.089C72.0646 138.159 71.9827 138.213 71.8925 138.251L71.6994 138.333C70.4963 138.845 69.2784 139.395 68.105 139.937C67.1173 140.39 66.1222 140.843 65.1344 141.281C65.0216 141.316 64.9025 141.326 64.7854 141.311H64.778ZM43.8132 140.821C43.7155 140.821 43.6186 140.802 43.5281 140.765C43.4376 140.728 43.3553 140.674 43.2859 140.605C41.5021 138.687 40.2257 136.354 39.5727 133.817C39.5454 133.724 39.5368 133.626 39.5474 133.529C39.558 133.432 39.5876 133.338 39.6345 133.252C39.6814 133.167 39.7446 133.091 39.8207 133.03C39.8967 132.969 39.9841 132.924 40.0777 132.897C40.1718 132.869 40.2704 132.861 40.3677 132.872C40.465 132.883 40.5592 132.914 40.6448 132.961C40.7304 133.009 40.8057 133.073 40.8664 133.15C40.9271 133.227 40.9721 133.315 40.9986 133.409C41.5764 135.701 42.7145 137.814 44.3108 139.558C44.413 139.662 44.4822 139.794 44.5097 139.938C44.5373 140.081 44.5219 140.229 44.4657 140.364C44.4094 140.499 44.3147 140.614 44.1934 140.695C44.072 140.776 43.9295 140.82 43.7835 140.821H43.8132ZM99.5708 137.003C99.4592 137.003 99.3492 136.977 99.2489 136.928C99.1487 136.88 99.0607 136.809 98.9915 136.721C98.843 136.538 98.6796 136.352 98.5014 136.164C97.0172 134.741 95.097 133.86 93.0504 133.662C92.9528 133.648 92.8589 133.616 92.7738 133.567C92.6887 133.517 92.6143 133.451 92.5546 133.373C92.4949 133.295 92.4513 133.206 92.4261 133.11C92.401 133.015 92.3948 132.916 92.408 132.819C92.4211 132.721 92.4534 132.627 92.5029 132.542C92.5524 132.457 92.6181 132.382 92.6964 132.323C92.7747 132.263 92.8639 132.22 92.9591 132.194C93.0542 132.169 93.1534 132.163 93.2509 132.176C95.6306 132.423 97.8561 133.471 99.5633 135.147C99.7713 135.37 99.9718 135.592 100.157 135.823C100.244 135.932 100.298 136.064 100.313 136.203C100.328 136.342 100.304 136.483 100.242 136.609C100.181 136.734 100.085 136.84 99.9666 136.914C99.8478 136.988 99.7106 137.026 99.5708 137.026V137.003ZM78.5466 135.778C78.3496 135.806 78.1498 135.754 77.991 135.634C77.8322 135.514 77.7275 135.336 77.7 135.139C77.6724 134.942 77.7242 134.743 77.8439 134.584C77.9637 134.425 78.1417 134.32 78.3386 134.293C80.7143 133.58 83.1264 132.995 85.5645 132.54L85.765 133.283L85.8987 134.025C83.4911 134.473 81.1088 135.049 78.7619 135.748C78.6944 135.768 78.6244 135.778 78.554 135.778H78.5466ZM39.491 127.007H39.4465C39.3489 127.002 39.2534 126.977 39.1654 126.934C39.0775 126.892 38.9988 126.832 38.934 126.759C38.8691 126.686 38.8193 126.6 38.7875 126.508C38.7556 126.416 38.7423 126.318 38.7484 126.22C38.8051 123.652 39.5515 121.146 40.9095 118.965L41.006 118.816C41.1196 118.656 41.2919 118.547 41.4854 118.514C41.6788 118.481 41.8776 118.525 42.0383 118.638C42.1192 118.694 42.1882 118.765 42.2414 118.847C42.2946 118.93 42.3309 119.022 42.3482 119.119C42.3654 119.216 42.3633 119.315 42.342 119.411C42.3207 119.507 42.2806 119.597 42.2239 119.678L42.1348 119.796C40.9343 121.76 40.2781 124.008 40.2337 126.309C40.2223 126.498 40.139 126.676 40.001 126.806C39.8629 126.936 39.6805 127.008 39.491 127.007ZM47.2293 115.207C47.0676 115.207 46.9102 115.155 46.7809 115.058C46.6516 114.961 46.5576 114.824 46.513 114.669C46.4685 114.513 46.4759 114.348 46.5342 114.197C46.5924 114.046 46.6983 113.918 46.8357 113.833L48.0017 113.09L53.2002 109.956C53.2836 109.891 53.3801 109.844 53.4832 109.818C53.5863 109.793 53.6937 109.79 53.798 109.81C53.9023 109.83 54.0012 109.872 54.0879 109.933C54.1747 109.994 54.2473 110.073 54.3009 110.165C54.3545 110.256 54.3878 110.359 54.3986 110.464C54.4094 110.57 54.3974 110.676 54.3635 110.777C54.3296 110.878 54.2745 110.97 54.2019 111.047C54.1293 111.125 54.041 111.186 53.9428 111.226L48.7443 114.368L47.6007 115.066C47.492 115.146 47.3636 115.194 47.2293 115.207ZM59.9211 107.491C59.7597 107.494 59.6017 107.444 59.4712 107.349C59.3406 107.254 59.2445 107.119 59.1975 106.964C59.1505 106.81 59.1551 106.644 59.2106 106.493C59.2662 106.341 59.3696 106.212 59.5052 106.124C61.2567 105.049 62.8073 103.677 64.0873 102.069C64.279 101.817 64.4575 101.554 64.622 101.282C64.673 101.199 64.74 101.126 64.8192 101.068C64.8984 101.011 64.9882 100.969 65.0834 100.947C65.1787 100.924 65.2775 100.92 65.3742 100.936C65.4709 100.951 65.5636 100.986 65.6469 101.037C65.8137 101.14 65.9332 101.305 65.9791 101.495C66.025 101.686 65.9937 101.887 65.8919 102.055C65.7045 102.369 65.4987 102.671 65.2755 102.961C63.8959 104.705 62.2221 106.196 60.3296 107.365C60.2087 107.446 60.0667 107.49 59.9211 107.491ZM66.3598 95.2966C66.1979 95.3051 66.0376 95.2603 65.9035 95.1691C65.7694 95.0779 65.6688 94.9453 65.6172 94.7916C65.5153 94.492 65.3886 94.2013 65.2384 93.9227C64.2284 92.0735 62.201 90.9521 60.7826 90.2466C60.6876 90.2094 60.6014 90.1529 60.5292 90.0808C60.4571 90.0088 60.4005 89.9226 60.3631 89.8277C60.3257 89.7328 60.3083 89.6312 60.3119 89.5293C60.3154 89.4274 60.34 89.3273 60.384 89.2352C60.4279 89.1432 60.4904 89.0612 60.5674 88.9944C60.6445 88.9276 60.7345 88.8773 60.8318 88.8468C60.9291 88.8163 61.0317 88.8061 61.1331 88.817C61.2345 88.8278 61.3326 88.8595 61.4212 88.9099C63.0402 89.6897 65.3424 90.9819 66.5529 93.2098C66.7477 93.5639 66.9117 93.9341 67.043 94.3163C67.0745 94.409 67.0873 94.5069 67.0808 94.6045C67.0743 94.7021 67.0486 94.7975 67.0051 94.8851C66.9616 94.9728 66.9013 95.051 66.8275 95.1152C66.7537 95.1794 66.668 95.2285 66.5752 95.2595C66.5051 95.2803 66.4328 95.2928 66.3598 95.2966ZM54.1211 87.7885C54.0594 87.7957 53.9971 87.7957 53.9354 87.7885C51.583 87.1722 49.1792 86.772 46.7541 86.5928C46.6565 86.5855 46.5614 86.5591 46.4741 86.515C46.3868 86.4709 46.309 86.4101 46.2452 86.3359C46.1814 86.2618 46.1329 86.1758 46.1023 86.0829C46.0718 85.99 46.0598 85.892 46.0671 85.7945C46.0744 85.697 46.1009 85.6019 46.1449 85.5145C46.189 85.4272 46.2499 85.3495 46.324 85.2857C46.3981 85.2219 46.4841 85.1733 46.577 85.1428C46.6699 85.1122 46.7679 85.1002 46.8654 85.1076C49.3742 85.2884 51.8605 85.7036 54.2919 86.3478C54.3894 86.3604 54.4835 86.3922 54.5687 86.4412C54.654 86.4903 54.7287 86.5556 54.7887 86.6336C54.8487 86.7115 54.8928 86.8005 54.9184 86.8954C54.944 86.9904 54.9506 87.0894 54.938 87.187C54.9253 87.2845 54.8935 87.3786 54.8445 87.4638C54.7955 87.5491 54.7301 87.6238 54.6522 87.6838C54.5743 87.7438 54.4853 87.7879 54.3903 87.8135C54.2954 87.8391 54.1963 87.8457 54.0988 87.833L54.1211 87.7885Z" fill="#D1D3D4"/>
<path d="M104.301 61.9372H104.249C104.161 61.9226 104.081 61.8742 104.027 61.8023C103.973 61.7304 103.949 61.6404 103.96 61.5511L110.027 16.6361C110.037 16.5571 110.075 16.4842 110.133 16.4299C110.192 16.3757 110.267 16.3435 110.346 16.339L161.93 13.309C161.982 13.3052 162.033 13.3133 162.081 13.3326C162.128 13.3519 162.171 13.382 162.205 13.4204C162.238 13.4587 162.263 13.5038 162.277 13.5525C162.291 13.6013 162.295 13.6525 162.287 13.7026L159.257 33.1227C159.241 33.2115 159.19 33.2906 159.117 33.3432C159.044 33.3958 158.953 33.418 158.863 33.4049C158.819 33.3977 158.776 33.3818 158.738 33.3581C158.7 33.3344 158.667 33.3034 158.64 33.2668C158.614 33.2302 158.595 33.1888 158.585 33.145C158.575 33.1011 158.574 33.0557 158.581 33.0113L161.552 14.0145L110.673 16.9851L104.621 61.655C104.607 61.7313 104.568 61.8008 104.51 61.852C104.452 61.9033 104.379 61.9334 104.301 61.9372Z" fill="#D1D3D4"/>
<path d="M235.987 52.9364C235.942 52.9326 235.898 52.92 235.858 52.8993C235.818 52.8786 235.782 52.8502 235.753 52.8157C235.724 52.7811 235.702 52.7412 235.689 52.6982C235.675 52.6552 235.671 52.6099 235.675 52.5651L240.093 1.96141L163.668 0.669209L160.066 29.4912C160.052 29.5804 160.003 29.6608 159.932 29.716C159.86 29.7711 159.77 29.7969 159.68 29.7882C159.635 29.7827 159.592 29.7683 159.552 29.7459C159.513 29.7234 159.478 29.6933 159.451 29.6574C159.423 29.6214 159.403 29.5804 159.391 29.5365C159.379 29.4927 159.377 29.447 159.383 29.402L163.029 0.297887C163.032 0.255916 163.043 0.214916 163.062 0.177243C163.081 0.13957 163.107 0.105968 163.138 0.0783645C163.17 0.0507612 163.207 0.0297021 163.247 0.0163964C163.287 0.00309067 163.329 -0.0022006 163.371 0.000829289L240.442 1.29303C240.537 1.29847 240.627 1.33804 240.695 1.40443C240.753 1.47793 240.783 1.57057 240.777 1.66435L236.321 52.6393C236.309 52.7201 236.269 52.7941 236.207 52.8484C236.146 52.9027 236.068 52.9338 235.987 52.9364Z" fill="#D1D3D4"/>
<path d="M31.099 80.0651L27.3858 72.5273C23.4275 64.529 19.5138 56.5085 15.5035 48.5697C13.9606 45.7169 13.1396 42.5298 13.1122 39.2866C13.1779 34.9194 14.8278 30.7247 17.755 27.4831C20.6822 24.2414 24.6874 22.1735 29.0253 21.664C33.3632 21.1546 37.7385 22.2383 41.3371 24.7136C44.9357 27.1889 47.5125 30.8872 48.5882 35.1204C49.691 39.3093 49.207 43.7579 47.2292 47.6116L37.2703 67.663C35.3246 71.5841 33.3814 75.5102 31.4406 79.4413C31.3441 79.6195 31.2475 79.7978 31.099 80.0651ZM31.099 48.5697C32.8834 48.5755 34.6294 48.0518 36.1159 47.0647C37.6024 46.0776 38.7626 44.6716 39.4495 43.0248C40.1365 41.3779 40.3193 39.5642 39.9748 37.8134C39.6302 36.0626 38.7739 34.4534 37.5143 33.1895C36.2546 31.9257 34.6482 31.0641 32.8985 30.7138C31.1488 30.3635 29.3346 30.5403 27.6854 31.2218C26.0363 31.9033 24.6265 33.0588 23.6345 34.5421C22.6425 36.0253 22.113 37.7696 22.113 39.554C22.1189 41.9382 23.0665 44.2234 24.7496 45.9121C26.4327 47.6007 28.7149 48.5559 31.099 48.5697Z" fill="#0073E6"/>
<path d="M74.5066 57.9344H74.4249C74.376 57.9258 74.3296 57.9064 74.2891 57.8776C74.2487 57.8488 74.2151 57.8114 74.1909 57.768C74.1667 57.7246 74.1525 57.6763 74.1493 57.6268C74.1461 57.5772 74.154 57.5275 74.1725 57.4814L78.9105 37.133C78.9256 37.0674 78.9598 37.0078 79.0086 36.9615C79.0575 36.9153 79.119 36.8845 79.1853 36.8731L105.111 32.4172C105.2 32.4042 105.291 32.4263 105.365 32.479C105.438 32.5316 105.488 32.6106 105.505 32.6994C105.513 32.7434 105.513 32.7886 105.503 32.8324C105.494 32.8762 105.476 32.9177 105.45 32.9544C105.425 32.9911 105.392 33.0223 105.354 33.0461C105.316 33.0699 105.274 33.0859 105.23 33.093L79.5269 37.5489L74.8334 57.6819C74.8129 57.7533 74.7701 57.8163 74.7114 57.8617C74.6526 57.9071 74.5809 57.9326 74.5066 57.9344Z" fill="#D1D3D4"/>
</svg>
