<svg width="20" height="20" viewBox="0 0 20 20" fill="none" xmlns="http://www.w3.org/2000/svg">
<g id="visibility_off">
<mask id="mask0_921_1445" style="mask-type:alpha" maskUnits="userSpaceOnUse" x="0" y="0" width="20" height="20">
<rect id="Bounding box" width="20" height="20" fill="#D9D9D9"/>
</mask>
<g mask="url(#mask0_921_1445)">
<path id="visibility_off_2" d="M13.4167 11.0833L12.2083 9.87492C12.3333 9.22214 12.1458 8.61103 11.6458 8.04158C11.1458 7.47214 10.5 7.24992 9.70834 7.37492L8.50001 6.16659C8.73612 6.05547 8.97557 5.97214 9.21834 5.91659C9.46168 5.86103 9.72223 5.83325 10 5.83325C11.0417 5.83325 11.9272 6.1977 12.6567 6.92659C13.3856 7.65603 13.75 8.54159 13.75 9.58325C13.75 9.86103 13.7222 10.1216 13.6667 10.3649C13.6111 10.6077 13.5278 10.8471 13.4167 11.0833ZM16.0833 13.7083L14.875 12.5416C15.4028 12.1388 15.8717 11.6977 16.2817 11.2183C16.6911 10.7394 17.0417 10.1944 17.3333 9.58325C16.6389 8.18047 15.6422 7.06575 14.3433 6.23909C13.045 5.41297 11.5972 4.99992 10 4.99992C9.59723 4.99992 9.2014 5.0277 8.81251 5.08325C8.42362 5.13881 8.04168 5.22214 7.66668 5.33325L6.37501 4.04159C6.94446 3.80547 7.52779 3.62825 8.12501 3.50992C8.72223 3.39214 9.34723 3.33325 10 3.33325C12.0972 3.33325 13.9653 3.91297 15.6042 5.07242C17.2431 6.23242 18.4306 7.73603 19.1667 9.58325C18.8472 10.4027 18.4272 11.1633 17.9067 11.8649C17.3856 12.566 16.7778 13.1805 16.0833 13.7083ZM16.5 18.8333L13 15.3749C12.5139 15.5277 12.0245 15.6424 11.5317 15.7191C11.0383 15.7952 10.5278 15.8333 10 15.8333C7.90279 15.8333 6.03473 15.2535 4.39584 14.0941C2.75695 12.9341 1.56945 11.4305 0.833344 9.58325C1.12501 8.84714 1.49307 8.16297 1.93751 7.53075C2.38195 6.89909 2.8889 6.33325 3.45834 5.83325L1.16668 3.49992L2.33334 2.33325L17.6667 17.6666L16.5 18.8333ZM4.62501 6.99992C4.22223 7.36103 3.85418 7.75686 3.52084 8.18742C3.18751 8.61797 2.90279 9.08325 2.66668 9.58325C3.36112 10.986 4.35751 12.1005 5.65584 12.9266C6.95473 13.7533 8.40279 14.1666 10 14.1666C10.2778 14.1666 10.5486 14.1494 10.8125 14.1149C11.0764 14.0799 11.3472 14.0416 11.625 13.9999L10.875 13.2083C10.7222 13.2499 10.5764 13.281 10.4375 13.3016C10.2986 13.3227 10.1528 13.3333 10 13.3333C8.95834 13.3333 8.07279 12.9688 7.34334 12.2399C6.61446 11.5105 6.25001 10.6249 6.25001 9.58325C6.25001 9.43047 6.26029 9.28464 6.28084 9.14575C6.30196 9.00686 6.33334 8.86103 6.37501 8.70825L4.62501 6.99992Z" fill="#282A2E" fill-opacity="0.9"/>
</g>
</g>
</svg>
