<svg width="27" height="21" viewBox="0 0 27 21" fill="none" xmlns="http://www.w3.org/2000/svg">
<g id="photo.on.rectangle" clip-path="url(#clip0_665_8397)">
<g id="Group">
<path id="Vector" d="M4.18126 15.6929H18.3413C20.5253 15.6929 21.6226 14.6258 21.6226 12.4813V2.71164C21.6226 0.577455 20.5253 -0.5 18.3413 -0.5H4.18126C1.98672 -0.5 0.899902 0.577455 0.899902 2.71164V12.4813C0.899902 14.6258 1.98672 15.6929 4.18126 15.6929ZM2.58238 12.3983V2.80488C2.58238 1.72743 3.17804 1.16798 4.20215 1.16798H18.3099C19.3445 1.16798 19.9402 1.72743 19.9402 2.80488V12.3983C19.9402 13.4758 19.3549 14.0249 18.3099 14.0249H4.20215C3.15714 14.0249 2.58238 13.4758 2.58238 12.3983Z" fill="#282A2E" fill-opacity="0.9"/>
<path id="Vector_2" d="M9.34361 20.4898H23.6186C25.7922 20.4898 26.8999 19.4123 26.8999 17.2782V7.50852C26.8999 5.37433 25.7922 4.29688 23.6186 4.29688H9.34361C7.14907 4.29688 6.06226 5.37433 6.06226 7.50852V17.2782C6.06226 19.4227 7.14907 20.4898 9.34361 20.4898Z" fill="white"/>
<path id="Vector_3" d="M9.34361 20.4898H23.6186C25.7922 20.4898 26.8999 19.4123 26.8999 17.2782V7.50852C26.8999 5.37433 25.7922 4.29688 23.6186 4.29688H9.34361C7.14907 4.29688 6.06226 5.37433 6.06226 7.50852V17.2782C6.06226 19.4227 7.14907 20.4898 9.34361 20.4898ZM9.36452 18.8218C8.31949 18.8218 7.74474 18.2727 7.74474 17.1952V7.60176C7.74474 6.5243 8.31949 5.96486 9.36452 5.96486H23.5872C24.6218 5.96486 25.2174 6.5243 25.2174 7.60176V17.1952C25.2174 18.2727 24.6218 18.8218 23.5872 18.8218H9.36452ZM9.37497 19.9407H23.3677C25.1861 19.9407 26.1579 19.029 26.1579 17.216V16.553L21.3091 12.0151C20.9015 11.6422 20.3999 11.4557 19.8983 11.4557C19.3758 11.4557 18.916 11.6215 18.4876 12.0048L14.2657 15.7137L12.5832 14.2115C12.186 13.849 11.7576 13.6832 11.3083 13.6832C10.9007 13.6832 10.514 13.849 10.1065 14.1908L6.58477 17.2263C6.58477 19.029 7.55663 19.9407 9.37497 19.9407Z" fill="#282A2E" fill-opacity="0.9"/>
<path id="Vector_4" d="M13.5132 12.243C14.7255 12.243 15.7182 11.238 15.7182 10.0259C15.7182 8.83453 14.7255 7.82959 13.5132 7.82959C12.2905 7.82959 11.2979 8.83453 11.2979 10.0259C11.2979 11.238 12.2905 12.243 13.5132 12.243Z" fill="#282A2E" fill-opacity="0.9"/>
</g>
</g>
<defs>
<clipPath id="clip0_665_8397">
<rect width="26" height="21" fill="white" transform="translate(0.600098)"/>
</clipPath>
</defs>
</svg>
